<?xml version="1.0" encoding="utf-8" standalone="no"?>
<!DOCTYPE svg PUBLIC "-//W3C//DTD SVG 1.1//EN"
  "http://www.w3.org/Graphics/SVG/1.1/DTD/svg11.dtd">
<!-- Created with matplotlib (http://matplotlib.sourceforge.net/) -->
<svg height="558pt" version="1.1" viewBox="0 0 1377 558" width="1377pt" xmlns="http://www.w3.org/2000/svg" xmlns:xlink="http://www.w3.org/1999/xlink">
 <defs>
  <style type="text/css">
*{stroke-linecap:square;stroke-linejoin:round;}
  </style>
 </defs>
 <g id="figure_1">
  <g id="axes_1">
   <g id="line2d_1">
    <path clip-path="url(#p94795a15ac)" d="
M-1 388.749
L13.4498 389.663
L28.8042 390.859
L44.9481 392.345
L61.885 394.129
L80.0962 396.274
L99.8274 398.827
L121.807 401.899
L147.736 405.756
L183.69 411.351
L242.724 420.542
L268.873 424.369
L290.825 427.364
L310.527 429.83
L328.706 431.883
L345.609 433.569
L361.48 434.932
L376.799 436.025
L391.332 436.84
L405.319 437.405
L418.994 437.735
L432.129 437.83
L444.956 437.702
L457.478 437.356
L469.697 436.796
L481.614 436.03
L493.455 435.046
L504.999 433.863
L516.467 432.463
L527.64 430.876
L538.739 429.075
L549.765 427.06
L560.716 424.829
L571.592 422.384
L582.394 419.723
L593.121 416.848
L603.776 413.761
L614.357 410.463
L624.867 406.958
L635.51 403.174
L646.081 399.182
L656.783 394.902
L667.613 390.33
L678.57 385.459
L689.652 380.286
L700.857 374.807
L712.187 369.021
L723.834 362.823
L735.795 356.204
L748.259 349.048
L761.223 341.343
L774.685 333.083
L789.208 323.905
L804.975 313.672
L822.73 301.876
L844.704 286.996
L916.524 238.141
L933.939 226.693
L949.368 216.811
L963.553 207.983
L977.055 199.84
L989.871 192.37
L1002.19 185.449
L1014.19 178.958
L1025.88 172.891
L1037.26 167.239
L1048.51 161.899
L1059.44 156.955
L1070.25 152.308
L1081.13 147.874
L1091.88 143.733
L1102.5 139.88
L1113.19 136.238
L1123.75 132.875
L1134.38 129.721
L1145.08 126.779
L1155.86 124.051
L1166.71 121.537
L1177.64 119.238
L1188.64 117.155
L1199.72 115.287
L1210.87 113.633
L1222.09 112.191
L1233.61 110.937
L1245.2 109.898
L1257.1 109.058
L1269.06 108.434
L1281.33 108.016
L1293.9 107.809
L1306.78 107.819
L1319.96 108.05
L1333.68 108.513
L1347.94 109.221
L1362.76 110.184
L1378.12 111.407
L1378.72 111.459
L1378.72 111.459" style="fill:none;opacity:0.15389010303;stroke:#8c0073;"/>
   </g>
   <g id="line2d_2">
    <path clip-path="url(#p94795a15ac)" d="
M-1 373.324
L13.2523 376.47
L28.5175 380.066
L44.8713 384.151
L62.3192 388.74
L81.6268 394.055
L103.311 400.26
L129.682 408.05
L172.03 420.833
L212.55 432.982
L237.594 440.259
L258.462 446.097
L277.206 451.113
L294.344 455.469
L310.136 459.259
L325.091 462.624
L339.215 465.579
L352.761 468.191
L365.732 470.47
L378.375 472.467
L390.451 474.153
L402.205 475.573
L413.639 476.732
L424.755 477.637
L435.557 478.297
L446.279 478.728
L456.69 478.922
L466.792 478.89
L476.818 478.636
L486.54 478.169
L496.186 477.483
L505.756 476.576
L515.029 475.476
L524.228 474.161
L533.353 472.632
L542.403 470.888
L551.379 468.927
L560.28 466.751
L569.106 464.361
L577.859 461.756
L586.538 458.938
L595.144 455.91
L603.678 452.672
L612.14 449.228
L620.73 445.491
L629.248 441.543
L637.89 437.29
L646.459 432.825
L655.148 428.045
L663.955 422.94
L672.689 417.622
L681.538 411.974
L690.501 405.992
L699.576 399.67
L708.946 392.87
L718.424 385.719
L728.191 378.072
L738.421 369.775
L748.933 360.961
L760.078 351.321
L771.852 340.839
L784.6 329.188
L799.013 315.705
L816.293 299.217
L845.057 271.407
L869.892 247.523
L886.01 232.326
L899.78 219.643
L912.234 208.47
L923.713 198.466
L934.563 189.301
L944.956 180.808
L955.068 172.833
L964.715 165.504
L974.256 158.533
L983.505 152.049
L992.644 145.913
L1001.67 140.12
L1010.59 134.665
L1019.39 129.541
L1028.07 124.741
L1036.63 120.257
L1045.27 115.985
L1053.78 112.017
L1062.36 108.26
L1071.02 104.716
L1079.55 101.464
L1088.15 98.4198
L1096.82 95.5869
L1105.57 92.9666
L1114.39 90.5603
L1123.29 88.3689
L1132.26 86.393
L1141.3 84.6327
L1150.42 83.0878
L1159.62 81.7579
L1168.88 80.6418
L1178.23 79.7384
L1187.86 79.032
L1197.58 78.5444
L1207.37 78.273
L1217.46 78.2159
L1227.63 78.3783
L1238.11 78.7672
L1248.9 79.3926
L1260 80.2636
L1271.19 81.3626
L1282.69 82.7131
L1294.75 84.3563
L1307.13 86.271
L1319.84 88.4602
L1333.13 90.9739
L1346.98 93.824
L1361.42 97.0196
L1376.69 100.627
L1378.72 101.122
L1378.72 101.122" style="fill:none;opacity:0.0443009980996;stroke:#1900e6;stroke-width:4;"/>
   </g>
   <g id="line2d_3">
    <path clip-path="url(#p94795a15ac)" d="
M-1 433.285
L24.674 432.068
L54.6034 430.88
L93.911 429.559
L179.137 426.758
L209.272 425.501
L235.029 424.21
L258.451 422.816
L279.998 421.314
L300.348 419.677
L319.73 417.899
L338.37 415.968
L356.491 413.869
L374.097 411.607
L391.408 409.158
L408.207 406.558
L424.715 403.781
L441.15 400.791
L457.295 397.63
L473.367 394.258
L489.367 390.676
L505.506 386.833
L521.572 382.778
L537.775 378.457
L554.116 373.869
L570.594 369.01
L587.415 363.817
L604.579 358.285
L622.289 352.34
L640.545 345.977
L659.752 339.044
L680.112 331.457
L702.231 322.973
L727.318 313.105
L758.196 300.706
L857.432 260.671
L881.945 251.135
L903.692 242.908
L923.886 235.504
L942.928 228.758
L961.019 222.582
L978.564 216.825
L995.562 211.478
L1012.22 206.469
L1028.74 201.732
L1044.91 197.324
L1061.16 193.128
L1077.27 189.197
L1093.24 185.528
L1109.28 182.069
L1125.39 178.82
L1141.58 175.781
L1158.06 172.914
L1174.83 170.225
L1191.89 167.717
L1209.24 165.393
L1226.89 163.254
L1245.05 161.274
L1263.95 159.44
L1283.6 157.757
L1304.21 156.217
L1326.25 154.797
L1349.93 153.497
L1376.18 152.284
L1378.72 152.178
L1378.72 152.178" style="fill:none;opacity:0.19450488692;stroke:#3500ca;stroke-width:3;"/>
   </g>
   <g id="line2d_4">
    <path clip-path="url(#p94795a15ac)" d="
M-1 341.497
L11.1463 344.474
L24.0413 347.863
L37.5305 351.641
L51.6178 355.818
L66.5641 360.485
L82.3748 365.658
L99.3141 371.435
L117.911 378.016
L138.697 385.611
L163.528 394.932
L198.766 408.422
L250.69 428.285
L275.492 437.523
L296.246 445.023
L314.805 451.497
L331.705 457.159
L347.473 462.209
L362.375 466.748
L376.416 470.793
L389.858 474.433
L402.705 477.682
L414.961 480.554
L426.882 483.12
L438.469 485.384
L449.479 487.313
L460.164 488.964
L470.767 490.377
L481.046 491.521
L491.007 492.408
L500.652 493.048
L510.219 493.461
L519.476 493.642
L528.656 493.601
L537.757 493.334
L546.556 492.855
L555.279 492.157
L563.926 491.24
L572.277 490.133
L580.556 488.816
L588.762 487.287
L596.894 485.547
L604.953 483.595
L612.939 481.432
L620.852 479.059
L628.693 476.476
L636.462 473.685
L644.159 470.687
L651.985 467.398
L659.737 463.895
L667.417 460.182
L675.219 456.158
L682.946 451.919
L690.601 447.469
L698.373 442.694
L706.258 437.583
L714.068 432.255
L721.989 426.581
L730.017 420.555
L738.151 414.168
L746.388 407.414
L754.726 400.29
L763.339 392.634
L772.05 384.593
L781.03 376.003
L790.447 366.682
L800.295 356.614
L810.571 345.788
L821.605 333.834
L833.725 320.369
L847.586 304.626
L865.153 284.316
L911.246 230.859
L925.135 215.196
L937.287 201.824
L948.357 189.972
L958.67 179.255
L968.386 169.472
L977.671 160.433
L986.691 151.958
L995.443 144.035
L1003.92 136.654
L1012.3 129.649
L1020.58 123.018
L1028.76 116.756
L1036.83 110.856
L1044.79 105.311
L1052.65 100.112
L1060.39 95.2484
L1068.21 90.6002
L1075.9 86.2772
L1083.68 82.1673
L1091.33 78.3691
L1099.05 74.7802
L1106.85 71.4035
L1114.72 68.2416
L1122.46 65.3693
L1130.27 62.7046
L1138.15 60.2489
L1146.11 58.0033
L1154.14 55.9686
L1162.24 54.1453
L1170.42 52.5337
L1178.67 51.1334
L1186.99 49.9443
L1195.39 48.9655
L1204.08 48.1785
L1212.85 47.6106
L1221.69 47.26
L1230.84 47.1238
L1240.06 47.2112
L1249.37 47.5194
L1258.98 48.0609
L1268.67 48.8267
L1278.67 49.8393
L1288.99 51.1099
L1299.64 52.6489
L1310.37 54.4228
L1321.42 56.4725
L1333.05 58.8585
L1345.01 61.544
L1357.31 64.533
L1370.19 67.8965
L1378.72 70.2437
L1378.72 70.2437" style="fill:none;opacity:0.0327433214356;stroke:#980067;stroke-width:2;"/>
   </g>
   <g id="line2d_5">
    <path clip-path="url(#p94795a15ac)" d="
M-1 417.465
L18.1899 417.314
L38.6687 417.377
L61.0665 417.672
L86.3141 418.231
L116.971 419.144
L169.552 420.979
L212.094 422.361
L240.377 423.06
L264.412 423.434
L285.828 423.549
L305.556 423.437
L324.291 423.11
L342.036 422.578
L359.021 421.846
L375.253 420.927
L390.959 419.818
L406.366 418.508
L421.252 417.022
L435.842 415.345
L450.137 413.482
L464.359 411.403
L478.288 409.144
L492.142 406.67
L505.708 404.025
L519.201 401.171
L532.622 398.107
L546.182 394.781
L559.668 391.243
L573.081 387.494
L586.632 383.476
L600.317 379.182
L614.135 374.611
L628.086 369.759
L642.17 364.625
L656.589 359.131
L671.341 353.273
L686.626 346.961
L702.441 340.189
L719.184 332.775
L737.047 324.615
L756.424 315.516
L778.495 304.899
L806.202 291.308
L885.347 252.333
L907.247 241.889
L926.457 232.969
L944.154 224.994
L960.731 217.765
L976.582 211.094
L991.701 204.97
L1006.49 199.218
L1020.95 193.835
L1035.07 188.814
L1048.86 184.145
L1062.51 179.754
L1076.02 175.636
L1089.61 171.729
L1103.06 168.092
L1116.59 164.666
L1129.97 161.504
L1143.43 158.55
L1156.96 155.805
L1170.57 153.27
L1184.46 150.907
L1198.43 148.758
L1212.69 146.789
L1227.24 145.008
L1241.87 143.441
L1257.02 142.044
L1272.46 140.845
L1288.43 139.832
L1304.93 139.011
L1321.95 138.388
L1339.73 137.961
L1358.5 137.734
L1378.49 137.718
L1378.72 137.719
L1378.72 137.719" style="fill:none;opacity:0.0955105634286;stroke:#0900f6;stroke-width:9;"/>
   </g>
   <g id="line2d_6">
    <path clip-path="url(#p94795a15ac)" d="
M-1 397.275
L17.7141 403.316
L39.2839 410.519
L65.1076 419.387
L105.645 433.579
L147.724 448.239
L172.722 456.713
L193.464 463.515
L212.041 469.377
L228.982 474.493
L244.806 479.042
L259.776 483.113
L273.897 486.724
L287.427 489.953
L300.369 492.813
L312.728 495.318
L324.756 497.53
L336.212 499.415
L347.342 501.026
L358.152 502.373
L368.879 503.484
L379.288 504.337
L389.382 504.944
L399.396 505.32
L409.098 505.461
L418.494 505.38
L427.814 505.08
L437.058 504.558
L446.001 503.832
L454.87 502.892
L463.664 501.736
L472.382 500.362
L481.026 498.77
L489.381 497.008
L497.663 495.039
L505.875 492.863
L514.015 490.48
L522.083 487.892
L530.286 485.025
L538.414 481.946
L546.47 478.656
L554.454 475.157
L562.563 471.357
L570.599 467.345
L578.562 463.123
L586.646 458.586
L594.847 453.723
L602.974 448.644
L611.214 443.231
L619.566 437.475
L628.027 431.369
L636.594 424.908
L645.267 418.087
L654.044 410.903
L663.102 403.201
L672.437 394.971
L682.045 386.203
L692.098 376.727
L702.762 366.362
L714.034 355.093
L726.418 342.39
L740.415 327.704
L757.697 309.229
L813.842 248.951
L827.539 234.727
L839.624 222.489
L850.767 211.513
L861.303 201.442
L871.227 192.258
L880.882 183.624
L890.265 175.533
L899.372 167.975
L908.2 160.937
L916.925 154.266
L925.361 148.09
L933.688 142.263
L942.092 136.656
L950.384 131.393
L958.563 126.466
L966.625 121.864
L974.761 117.477
L982.776 113.405
L990.864 109.544
L999.027 105.898
L1007.06 102.552
L1015.17 99.4162
L1023.35 96.4927
L1031.61 93.7834
L1039.73 91.3496
L1047.93 89.1219
L1056.19 87.1012
L1064.53 85.2878
L1072.94 83.6818
L1081.64 82.25
L1090.41 81.0356
L1099.26 80.0378
L1108.18 79.2553
L1117.18 78.6865
L1126.48 78.3233
L1135.85 78.1801
L1145.53 78.2586
L1155.29 78.5616
L1165.36 79.1004
L1175.51 79.866
L1185.98 80.879
L1196.76 82.1492
L1207.86 83.6856
L1219.29 85.496
L1231.05 87.5872
L1243.13 89.9642
L1255.8 92.6866
L1268.8 95.7099
L1282.38 99.0986
L1296.56 102.863
L1311.58 107.084
L1327.71 111.852
L1344.95 117.186
L1363.84 123.264
L1378.72 128.201
L1378.72 128.201" style="fill:none;opacity:0.101433292947;stroke:#e80017;stroke-width:2;"/>
   </g>
   <g id="line2d_7">
    <path clip-path="url(#p94795a15ac)" d="
M-1 439.486
L28.4921 435.131
L60.7138 430.603
L97.1763 425.71
L142.943 419.805
L274.789 402.937
L311.004 397.992
L342.756 393.437
L372.027 389.015
L399.695 384.612
L425.982 380.206
L451.544 375.695
L476.383 371.087
L500.717 366.349
L524.977 361.398
L549.164 356.234
L573.277 350.857
L597.744 345.173
L622.562 339.177
L647.943 332.816
L674.309 325.978
L702.078 318.544
L731.876 310.333
L764.957 300.982
L804.663 289.518
L871.447 269.956
L926.994 253.788
L964.028 243.239
L995.694 234.446
L1024.5 226.676
L1051.69 219.569
L1077.69 213.002
L1102.92 206.861
L1127.58 201.086
L1151.89 195.622
L1176.07 190.418
L1200.1 185.471
L1224.42 180.692
L1249.03 176.083
L1274.14 171.606
L1299.98 167.227
L1326.76 162.914
L1354.92 158.605
L1378.72 155.124
L1378.72 155.124" style="fill:none;opacity:0.134447274373;stroke:#bc0043;stroke-width:10;"/>
   </g>
   <g id="line2d_8">
    <path clip-path="url(#p94795a15ac)" d="
M-1 393.909
L14.7373 396.041
L31.6996 398.563
L49.9562 401.504
L70.0004 404.962
L92.819 409.13
L120.632 414.448
L172.427 424.638
L207.65 431.441
L232.445 436.007
L253.476 439.659
L272.469 442.736
L289.92 445.341
L306.32 447.566
L321.675 449.429
L336.47 451.001
L350.707 452.29
L364.389 453.303
L377.521 454.054
L390.339 454.564
L402.614 454.834
L414.582 454.879
L426.473 454.701
L438.058 454.304
L449.341 453.696
L460.547 452.868
L471.454 451.839
L482.285 450.593
L492.822 449.158
L503.285 447.51
L513.674 445.649
L523.988 443.573
L534.229 441.282
L544.395 438.777
L554.487 436.058
L564.506 433.127
L574.452 429.986
L584.326 426.636
L594.333 423.006
L604.266 419.164
L614.329 415.032
L624.319 410.69
L634.436 406.049
L644.678 401.105
L655.043 395.851
L665.529 390.285
L676.135 384.403
L687.054 378.092
L698.279 371.342
L709.81 364.145
L721.832 356.374
L734.342 348.019
L747.522 338.947
L761.74 328.887
L777.543 317.428
L796.023 303.742
L821.738 284.394
L862.045 254.073
L880.73 240.317
L896.56 228.936
L910.808 218.964
L924.021 209.985
L936.565 201.73
L948.435 194.183
L960.002 187.092
L971.074 180.561
L982.03 174.359
L992.675 168.587
L1003.2 163.134
L1013.6 157.996
L1023.89 153.169
L1034.04 148.648
L1044.08 144.425
L1054.18 140.415
L1064.16 136.696
L1074.21 133.19
L1084.12 129.964
L1094.11 126.948
L1104.18 124.143
L1114.31 121.552
L1124.52 119.174
L1134.81 117.011
L1145.17 115.063
L1155.6 113.329
L1166.11 111.809
L1176.69 110.5
L1187.56 109.381
L1198.51 108.478
L1209.76 107.776
L1221.09 107.293
L1232.72 107.02
L1244.65 106.966
L1256.89 107.137
L1269.44 107.538
L1282.3 108.175
L1295.48 109.05
L1309.2 110.185
L1323.48 111.593
L1338.32 113.28
L1353.95 115.286
L1370.39 117.62
L1378.72 118.883
L1378.72 118.883" style="fill:none;opacity:0.0994283816999;stroke:#5e00a1;stroke-width:9;"/>
   </g>
   <g id="line2d_9">
    <path clip-path="url(#p94795a15ac)" d="
M-1 436.698
L25.6638 432.936
L54.448 429.102
L86.1648 425.107
L122.804 420.724
L171.884 415.096
L264.97 404.453
L302.031 399.96
L333.724 395.898
L362.483 391.99
L389.192 388.138
L414.514 384.264
L438.89 380.31
L462.539 376.249
L485.68 372.049
L508.315 367.716
L530.662 363.213
L552.936 358.499
L575.35 353.527
L597.691 348.344
L620.385 342.85
L643.43 337.044
L667.247 330.812
L691.834 324.148
L717.819 316.873
L745.616 308.857
L776.473 299.721
L813.093 288.638
L868.979 271.457
L929.663 252.866
L965.275 242.192
L995.544 233.349
L1022.96 225.568
L1048.57 218.531
L1072.99 212.049
L1096.64 206
L1119.73 200.325
L1142.26 195.015
L1164.65 189.966
L1186.89 185.175
L1209.21 180.594
L1231.82 176.184
L1254.5 171.985
L1277.69 167.918
L1301.6 163.953
L1326.24 160.094
L1351.83 156.314
L1378.72 152.563
L1378.72 152.563" style="fill:none;opacity:0.0272868918398;stroke:#1500ea;stroke-width:10;"/>
   </g>
   <g id="line2d_10">
    <path clip-path="url(#p94795a15ac)" d="
M-1 417.649
L17.364 416.255
L36.7013 415.012
L57.014 413.931
L78.7573 412.999
L102.39 412.211
L129.054 411.551
L161.04 410.992
L212.993 410.344
L261.255 409.661
L291.6 409.01
L317.08 408.246
L339.982 407.342
L361.222 406.283
L381.256 405.062
L400.315 403.677
L418.402 402.142
L435.968 400.43
L453.014 398.545
L469.544 396.496
L485.78 394.261
L501.722 391.842
L517.373 389.245
L532.95 386.433
L548.237 383.45
L563.452 380.256
L578.593 376.851
L593.662 373.237
L608.871 369.361
L624.006 365.275
L639.28 360.923
L654.691 356.303
L670.445 351.347
L686.54 346.047
L702.974 340.399
L719.95 334.325
L737.466 327.82
L755.928 320.723
L775.532 312.945
L796.881 304.23
L821.177 294.066
L851.419 281.158
L939.894 243.24
L963.816 233.324
L984.995 224.782
L1004.43 217.18
L1022.72 210.261
L1040.07 203.934
L1056.88 198.038
L1073.14 192.565
L1089.07 187.439
L1104.65 182.653
L1120.1 178.14
L1135.41 173.896
L1150.59 169.92
L1165.83 166.154
L1180.94 162.651
L1196.12 159.358
L1211.37 156.276
L1226.7 153.404
L1242.31 150.705
L1258 148.218
L1273.98 145.91
L1290.26 143.783
L1306.82 141.841
L1323.91 140.062
L1341.51 138.453
L1359.85 137.001
L1378.72 135.73
L1378.72 135.73" style="fill:none;opacity:0.100006537428;stroke:#eb0014;stroke-width:2;"/>
   </g>
   <g id="line2d_11">
    <path clip-path="url(#p94795a15ac)" d="
M-1 395.668
L16.614 400.137
L36.1042 405.314
L58.2158 411.425
L85.249 419.139
L135.092 433.651
L169.55 443.558
L193.711 450.279
L214.225 455.76
L232.627 460.45
L249.432 464.51
L265.15 468.084
L280.034 471.244
L294.338 474.054
L307.819 476.479
L320.971 478.618
L333.554 480.44
L345.812 481.989
L357.51 483.245
L368.889 484.247
L379.954 485.003
L390.939 485.53
L401.612 485.817
L411.975 485.875
L422.261 485.708
L432.242 485.324
L442.146 484.719
L451.75 483.911
L461.279 482.886
L470.733 481.644
L479.894 480.22
L488.983 478.586
L497.998 476.742
L506.942 474.688
L515.812 472.424
L524.61 469.95
L533.336 467.269
L541.991 464.382
L550.778 461.213
L559.492 457.832
L568.134 454.241
L576.902 450.353
L585.597 446.253
L594.219 441.944
L602.965 437.326
L611.831 432.391
L620.814 427.131
L629.723 421.658
L638.749 415.855
L648.074 409.591
L657.51 402.982
L667.055 396.026
L676.892 388.584
L687.018 380.645
L697.608 372.058
L708.659 362.809
L720.344 352.738
L733.013 341.521
L747.009 328.827
L763.546 313.513
L786.611 291.819
L821.818 258.718
L838.38 243.473
L852.404 230.859
L865.103 219.732
L876.823 209.758
L887.909 200.612
L898.537 192.133
L908.701 184.307
L918.578 176.98
L928.164 170.143
L937.643 163.656
L946.824 157.639
L955.891 151.958
L964.843 146.608
L973.677 141.583
L982.586 136.772
L991.375 132.279
L1000.04 128.095
L1008.78 124.122
L1017.39 120.446
L1026.08 116.979
L1034.83 113.724
L1043.66 110.682
L1052.36 107.919
L1061.13 105.363
L1069.97 103.017
L1078.89 100.88
L1087.88 98.9528
L1096.94 97.236
L1106.07 95.729
L1115.27 94.4313
L1124.77 93.3183
L1134.34 92.4222
L1143.99 91.7409
L1153.94 91.2638
L1163.97 91.0065
L1174.3 90.9673
L1184.7 91.1504
L1195.42 91.563
L1206.45 92.2143
L1217.55 93.092
L1228.97 94.2152
L1240.71 95.5903
L1253.01 97.2578
L1265.64 99.1955
L1278.83 101.449
L1292.59 104.032
L1306.94 106.955
L1321.86 110.223
L1337.86 113.959
L1354.95 118.183
L1373.39 122.971
L1378.72 124.395
L1378.72 124.395" style="fill:none;opacity:0.230836856189;stroke:#6d0092;stroke-width:5;"/>
   </g>
   <g id="line2d_12">
    <path clip-path="url(#p94795a15ac)" d="
M-1 389.272
L15.78 393.74
L34.0973 398.85
L54.5404 404.789
L78.3982 411.961
L109.792 421.649
L178.268 442.847
L202.357 450.024
L222.771 455.88
L241.057 460.898
L257.985 465.314
L273.815 469.213
L288.554 472.618
L302.709 475.661
L316.281 478.35
L329.275 480.697
L341.697 482.716
L353.792 484.457
L365.563 485.925
L377.011 487.126
L388.139 488.066
L398.951 488.755
L409.448 489.201
L419.636 489.414
L429.746 489.404
L439.55 489.174
L449.277 488.722
L458.704 488.066
L468.056 487.194
L477.334 486.106
L486.535 484.798
L495.444 483.311
L504.281 481.613
L513.045 479.706
L521.736 477.588
L530.355 475.262
L538.902 472.727
L547.377 469.985
L555.781 467.037
L564.317 463.806
L572.78 460.363
L581.171 456.712
L589.687 452.76
L598.131 448.598
L606.696 444.123
L615.188 439.436
L623.799 434.428
L632.525 429.092
L641.366 423.419
L650.318 417.405
L659.379 411.043
L668.55 404.331
L678.01 397.127
L687.575 389.563
L697.424 381.492
L707.733 372.755
L718.496 363.34
L729.886 353.078
L742.247 341.636
L755.918 328.667
L771.756 313.325
L793.532 291.893
L830.222 255.769
L846.254 240.324
L859.952 227.431
L872.166 216.231
L883.586 206.055
L894.381 196.732
L904.724 188.092
L914.607 180.12
L924.208 172.659
L933.522 165.696
L942.728 159.089
L951.827 152.835
L960.629 147.051
L969.317 141.601
L978.079 136.368
L986.726 131.465
L995.254 126.882
L1003.86 122.515
L1012.34 118.459
L1020.89 114.616
L1029.32 111.073
L1037.82 107.739
L1046.39 104.619
L1054.84 101.78
L1063.35 99.1479
L1071.93 96.7236
L1080.59 94.5082
L1089.32 92.5024
L1098.12 90.7065
L1107 89.1204
L1115.95 87.7438
L1125.19 86.55
L1134.5 85.574
L1143.89 84.8143
L1153.36 84.2688
L1163.13 83.9299
L1172.97 83.8102
L1183.12 83.9112
L1193.34 84.2344
L1203.88 84.7899
L1214.73 85.5878
L1225.89 86.6369
L1237.14 87.9155
L1248.94 89.4848
L1261.07 91.3256
L1273.53 93.4419
L1286.56 95.8844
L1300.16 98.667
L1314.35 101.801
L1329.12 105.292
L1344.72 109.21
L1361.42 113.634
L1378.72 118.432
L1378.72 118.432" style="fill:none;opacity:0.187408827004;stroke:#64009b;stroke-width:8;"/>
   </g>
   <g id="line2d_13">
    <path clip-path="url(#p94795a15ac)" d="
M-1 412.015
L16.4192 411.532
L34.9373 411.243
L54.447 411.162
L75.6416 411.301
L98.989 411.683
L125.652 412.349
L159.586 413.432
L250.968 416.466
L277.604 417.054
L300.69 417.345
L321.622 417.389
L341.098 417.209
L359.352 416.822
L376.845 416.229
L393.582 415.441
L409.79 414.455
L425.473 413.278
L440.633 411.92
L455.495 410.367
L470.062 408.622
L484.334 406.69
L498.531 404.542
L512.436 402.213
L526.267 399.669
L539.808 396.955
L553.277 394.031
L566.674 390.898
L580.21 387.503
L593.673 383.896
L607.063 380.08
L620.59 375.994
L634.252 371.634
L648.047 366.997
L661.976 362.081
L676.242 356.809
L690.841 351.172
L705.772 345.167
L721.236 338.706
L737.428 331.695
L754.346 324.125
L772.584 315.718
L792.73 306.181
L816.156 294.835
L847.771 279.252
L904.709 251.162
L928.352 239.775
L948.52 230.304
L966.783 221.971
L983.729 214.479
L999.75 207.636
L1015.24 201.26
L1030.2 195.342
L1044.63 189.872
L1058.93 184.69
L1072.89 179.865
L1086.72 175.322
L1100.41 171.058
L1113.97 167.068
L1127.4 163.349
L1140.89 159.84
L1154.46 156.544
L1167.89 153.51
L1181.4 150.685
L1194.97 148.07
L1208.84 145.626
L1222.78 143.397
L1237.01 141.348
L1251.31 139.514
L1265.91 137.866
L1280.81 136.408
L1296 135.144
L1311.72 134.06
L1327.96 133.165
L1344.72 132.464
L1362.25 131.957
L1378.72 131.672
L1378.72 131.672" style="fill:none;opacity:0.152721392351;stroke:#60009f;stroke-width:10;"/>
   </g>
   <g id="line2d_14">
    <path clip-path="url(#p94795a15ac)" d="
M-1 415.436
L17.3675 414.937
L36.7995 414.632
L57.6809 414.53
L80.4761 414.645
L106.344 415.004
L137.836 415.675
L204.399 417.396
L240.061 418.16
L267.079 418.521
L290.326 418.613
L311.426 418.48
L331.075 418.137
L349.506 417.596
L367.179 416.858
L384.098 415.931
L400.489 414.811
L416.357 413.505
L431.704 412.022
L446.754 410.346
L461.509 408.481
L475.97 406.432
L490.357 404.169
L504.453 401.727
L518.475 399.072
L532.423 396.204
L546.297 393.121
L560.097 389.826
L573.824 386.319
L587.479 382.603
L601.271 378.619
L615.199 374.364
L629.261 369.833
L643.457 365.023
L657.786 359.934
L672.452 354.491
L687.452 348.686
L702.988 342.435
L719.257 335.645
L736.256 328.307
L754.38 320.236
L774.222 311.152
L796.767 300.579
L825.167 286.997
L904.013 249.149
L926.386 238.742
L946.058 229.832
L964.014 221.939
L980.844 214.779
L996.945 208.168
L1012.52 202.015
L1027.55 196.311
L1042.25 190.972
L1056.62 185.99
L1070.85 181.29
L1084.75 176.934
L1098.71 172.788
L1112.54 168.916
L1126.24 165.312
L1140 161.918
L1153.84 158.736
L1167.75 155.768
L1181.74 153.014
L1195.8 150.473
L1209.94 148.145
L1224.36 145.995
L1238.86 144.057
L1253.66 142.303
L1268.75 140.737
L1284.35 139.343
L1300.26 138.146
L1316.69 137.132
L1333.64 136.309
L1351.35 135.671
L1370.04 135.223
L1378.72 135.086
L1378.72 135.086" style="fill:none;opacity:0.0438002775715;stroke:#a0005f;stroke-width:8;"/>
   </g>
   <g id="line2d_15">
    <path clip-path="url(#p94795a15ac)" d="
M-1 426.302
L22.5566 427.941
L50.9016 430.145
L93.7456 433.731
L143.199 437.817
L170.803 439.872
L194.082 441.387
L214.698 442.511
L233.831 443.333
L251.719 443.881
L268.601 444.177
L284.712 444.24
L300.286 444.078
L315.325 443.698
L329.832 443.11
L344.036 442.31
L357.714 441.32
L371.094 440.131
L384.399 438.726
L397.408 437.127
L410.122 435.343
L422.762 433.346
L435.328 431.133
L447.604 428.747
L459.807 426.151
L471.938 423.345
L483.997 420.331
L496.194 417.051
L508.317 413.559
L520.368 409.858
L532.554 405.882
L544.872 401.626
L557.119 397.161
L569.497 392.413
L582.208 387.298
L595.048 381.891
L608.215 376.103
L621.709 369.927
L635.723 363.265
L650.256 356.108
L665.5 348.35
L681.843 339.781
L699.667 330.179
L719.934 319.001
L745.528 304.615
L816.876 264.362
L837.169 253.261
L854.829 243.848
L871.009 235.472
L886.287 227.812
L900.658 220.851
L914.51 214.384
L928.04 208.313
L941.245 202.633
L954.123 197.337
L966.67 192.413
L979.087 187.777
L991.372 183.425
L1003.52 179.352
L1015.75 175.49
L1027.84 171.903
L1040 168.526
L1052.03 165.416
L1064.13 162.513
L1076.3 159.82
L1088.54 157.337
L1100.85 155.064
L1113.46 152.965
L1126.14 151.08
L1138.89 149.408
L1151.94 147.921
L1165.28 146.628
L1178.7 145.548
L1192.64 144.653
L1206.88 143.964
L1221.43 143.484
L1236.5 143.211
L1252.11 143.153
L1268.26 143.316
L1285.17 143.709
L1303.09 144.349
L1322.26 145.259
L1343.14 146.478
L1366.44 148.068
L1378.72 148.984
L1378.72 148.984" style="fill:none;opacity:0.121927747987;stroke:#71008e;"/>
   </g>
   <g id="line2d_16">
    <path clip-path="url(#p94795a15ac)" d="
M-1 418.713
L17.7905 417.488
L37.6472 416.417
L58.7084 415.507
L81.4315 414.749
L106.732 414.132
L136.214 413.645
L176.065 413.228
L249.82 412.485
L279.74 411.932
L305.016 411.246
L327.713 410.413
L348.746 409.42
L368.573 408.263
L387.423 406.942
L405.525 405.449
L422.882 403.797
L439.72 401.974
L456.262 399.959
L472.289 397.786
L488.024 395.43
L503.684 392.861
L519.053 390.114
L534.349 387.154
L549.57 383.979
L564.716 380.59
L579.79 376.987
L594.79 373.173
L609.927 369.093
L625.202 364.743
L640.611 360.12
L656.156 355.223
L672.041 349.983
L688.266 344.393
L704.828 338.452
L722.135 332.005
L740.183 325.042
L759.374 317.397
L780.107 308.894
L803.382 299.103
L831.597 286.981
L887.132 262.806
L920.739 248.33
L945.415 237.937
L966.953 229.103
L986.549 221.303
L1005.01 214.194
L1022.52 207.686
L1039.3 201.69
L1055.53 196.121
L1071.42 190.901
L1086.97 186.024
L1102.39 181.423
L1117.67 177.095
L1132.82 173.037
L1147.82 169.245
L1162.9 165.665
L1178.06 162.298
L1193.07 159.189
L1208.38 156.249
L1223.75 153.521
L1239.2 151.005
L1254.94 148.666
L1270.97 146.509
L1287.3 144.535
L1304.14 142.725
L1321.5 141.085
L1339.39 139.622
L1358.01 138.324
L1377.39 137.197
L1378.72 137.128
L1378.72 137.128" style="fill:none;opacity:0.00336079265255;stroke:#1300ec;stroke-width:5;"/>
   </g>
   <g id="line2d_17">
    <path clip-path="url(#p94795a15ac)" d="
M-1 421.379
L19.2863 421.147
L41.3426 421.119
L66.0051 421.316
L94.8962 421.777
L135.429 422.668
L198.426 424.047
L227.525 424.446
L252.161 424.564
L274.187 424.45
L294.531 424.122
L313.427 423.599
L331.339 422.885
L348.495 421.982
L365.125 420.887
L381.231 419.604
L396.815 418.142
L412.102 416.486
L427.093 414.639
L441.789 412.604
L456.192 410.387
L470.522 407.957
L484.561 405.352
L498.527 402.536
L512.42 399.509
L526.24 396.271
L539.988 392.824
L553.874 389.112
L567.688 385.191
L581.638 381
L595.723 376.536
L609.943 371.795
L624.501 366.704
L639.191 361.33
L654.217 355.598
L669.779 349.422
L685.874 342.796
L702.902 335.541
L720.857 327.647
L740.534 318.749
L762.719 308.464
L789.977 295.568
L880.379 252.589
L902.004 242.679
L921.321 234.068
L939.116 226.375
L955.783 219.408
L971.719 212.983
L987.12 207.009
L1002.19 201.402
L1016.92 196.158
L1031.32 191.269
L1045.59 186.66
L1059.72 182.33
L1073.72 178.275
L1087.58 174.491
L1101.51 170.919
L1115.31 167.611
L1129.18 164.513
L1143.12 161.626
L1157.13 158.95
L1171.22 156.485
L1185.6 154.195
L1200.05 152.117
L1214.79 150.22
L1229.83 148.509
L1245.17 146.988
L1261.02 145.64
L1277.17 144.49
L1294.07 143.513
L1311.5 142.729
L1329.68 142.134
L1348.85 141.73
L1369.46 141.521
L1378.72 141.495
L1378.72 141.495" style="fill:none;opacity:0.236031596704;stroke:#5600a9;stroke-width:7;"/>
   </g>
   <g id="line2d_18">
    <path clip-path="url(#p94795a15ac)" d="
M-1 384.191
L13.4474 385.67
L28.54 387.438
L44.4323 389.525
L61.3699 391.976
L79.6008 394.843
L99.3735 398.179
L121.917 402.216
L148.958 407.295
L192.321 415.702
L234.423 423.786
L260.191 428.509
L281.707 432.232
L300.941 435.341
L318.633 437.98
L335.274 440.239
L350.871 442.134
L365.667 443.712
L379.908 445.01
L393.594 446.036
L406.966 446.815
L419.789 447.34
L432.302 447.631
L444.505 447.691
L456.4 447.527
L467.991 447.147
L479.28 446.557
L490.493 445.749
L501.408 444.742
L512.247 443.52
L523.012 442.079
L533.482 440.454
L543.88 438.617
L554.203 436.566
L564.453 434.303
L574.629 431.827
L584.732 429.139
L594.762 426.24
L604.72 423.132
L614.606 419.817
L624.625 416.223
L634.572 412.419
L644.648 408.326
L654.652 404.024
L664.784 399.426
L675.041 394.525
L685.421 389.317
L695.923 383.797
L706.546 377.963
L717.482 371.702
L728.726 365.004
L740.275 357.861
L752.129 350.269
L764.66 341.976
L777.863 332.968
L792.105 322.977
L807.749 311.725
L826.075 298.259
L850.916 279.704
L894.745 246.942
L913.274 233.399
L928.942 222.215
L943.21 212.3
L956.441 203.374
L969.002 195.168
L980.888 187.666
L992.47 180.618
L1003.56 174.129
L1014.53 167.965
L1025.18 162.23
L1035.72 156.811
L1046.14 151.706
L1056.43 146.911
L1066.6 142.419
L1076.64 138.223
L1086.75 134.24
L1096.74 130.545
L1106.8 127.062
L1116.72 123.857
L1126.72 120.861
L1136.78 118.075
L1146.93 115.5
L1157.14 113.138
L1167.43 110.988
L1177.79 109.052
L1188.23 107.329
L1198.74 105.817
L1209.54 104.491
L1220.42 103.381
L1231.38 102.487
L1242.63 101.791
L1253.96 101.312
L1265.59 101.042
L1277.52 100.988
L1289.76 101.157
L1302.31 101.555
L1315.17 102.185
L1328.58 103.068
L1342.3 104.196
L1356.57 105.592
L1371.4 107.265
L1378.72 108.168
L1378.72 108.168" style="fill:none;opacity:0.134426870116;stroke:#8d0072;stroke-width:4;"/>
   </g>
   <g id="line2d_19">
    <path clip-path="url(#p94795a15ac)" d="
M-1 346.879
L11.2794 349.509
L24.274 352.521
L37.8558 355.902
L52.0287 359.663
L67.0505 363.884
L82.9262 368.58
L99.9167 373.841
L118.544 379.846
L139.335 386.789
L163.858 395.222
L198.137 407.267
L253.611 426.761
L278.369 435.208
L299.128 442.06
L317.72 447.965
L334.674 453.117
L350.51 457.699
L365.236 461.732
L379.368 465.372
L392.907 468.629
L405.857 471.514
L418.225 474.043
L430.26 476.275
L441.722 478.179
L452.859 479.808
L463.673 481.169
L474.168 482.272
L484.583 483.144
L494.682 483.766
L504.469 484.151
L514.179 484.311
L523.581 484.248
L532.907 483.964
L542.155 483.457
L551.103 482.746
L559.976 481.818
L568.775 480.674
L577.497 479.311
L585.929 477.771
L594.288 476.022
L602.575 474.066
L610.79 471.9
L618.934 469.528
L627.005 466.949
L635.211 464.09
L643.342 461.017
L651.399 457.732
L659.384 454.238
L667.298 450.536
L675.336 446.531
L683.301 442.314
L691.386 437.781
L699.398 433.036
L707.527 427.963
L715.769 422.554
L724.121 416.8
L732.399 410.83
L740.968 404.372
L749.641 397.552
L758.417 390.366
L767.474 382.66
L776.806 374.423
L786.41 365.644
L796.458 356.153
L806.945 345.937
L818.209 334.647
L830.414 322.091
L844.061 307.725
L860.824 289.739
L921.924 223.853
L935.281 209.976
L947.197 197.913
L958.171 187.115
L968.539 177.222
L978.469 168.053
L987.954 159.594
L997.166 151.674
L1006.1 144.281
L1014.93 137.261
L1023.48 130.748
L1031.93 124.59
L1040.26 118.784
L1048.49 113.322
L1056.6 108.196
L1064.78 103.285
L1072.85 98.702
L1080.99 94.3347
L1089.01 90.2835
L1097.11 86.4459
L1105.08 82.9108
L1113.12 79.5849
L1121.24 76.4708
L1129.43 73.5704
L1137.49 70.9502
L1145.62 68.5363
L1153.82 66.3297
L1162.09 64.3312
L1170.44 62.5411
L1178.85 60.9597
L1187.34 59.5865
L1196.12 58.3939
L1204.98 57.419
L1213.91 56.6604
L1222.92 56.1164
L1232.23 55.7796
L1241.61 55.6638
L1251.07 55.7662
L1260.84 56.0937
L1270.92 56.6586
L1281.07 57.4513
L1291.55 58.4928
L1302.34 59.7931
L1313.46 61.3612
L1324.9 63.2048
L1336.67 65.3307
L1348.76 67.7439
L1361.19 70.4482
L1374.2 73.5065
L1378.72 74.6197
L1378.72 74.6197" style="fill:none;opacity:0.067264313922;stroke:#3200cd;stroke-width:5;"/>
   </g>
   <g id="line2d_20">
    <path clip-path="url(#p94795a15ac)" d="
M-1 413.047
L16.9057 412.938
L36.0206 413.045
L56.5956 413.386
L79.0991 413.986
L104.698 414.898
L136.431 416.263
L242.193 421.001
L267.057 421.78
L289.057 422.253
L309.128 422.466
L327.969 422.446
L345.815 422.207
L362.67 421.761
L378.994 421.109
L394.788 420.256
L410.056 419.209
L425.024 417.959
L439.47 416.531
L453.62 414.912
L467.696 413.077
L481.477 411.055
L494.966 408.853
L508.382 406.44
L521.724 403.812
L534.992 400.971
L548.186 397.916
L561.306 394.649
L574.354 391.171
L587.538 387.424
L600.649 383.466
L613.896 379.234
L627.276 374.725
L640.789 369.934
L654.433 364.86
L668.413 359.425
L682.724 353.619
L697.365 347.44
L712.536 340.798
L728.432 333.595
L745.446 325.637
L763.77 316.816
L784.187 306.735
L808.649 294.395
L846.921 274.801
L885.606 255.075
L909.126 243.334
L928.995 233.66
L946.968 225.154
L963.632 217.512
L979.376 210.535
L994.395 204.118
L1008.88 198.164
L1023.04 192.584
L1036.87 187.372
L1050.57 182.446
L1063.92 177.875
L1077.15 173.581
L1090.45 169.498
L1103.61 165.691
L1116.64 162.152
L1129.74 158.823
L1142.91 155.706
L1156.16 152.803
L1169.48 150.114
L1182.87 147.638
L1196.34 145.375
L1209.88 143.323
L1223.71 141.45
L1237.84 139.764
L1252.26 138.27
L1266.98 136.971
L1282 135.871
L1297.55 134.959
L1313.39 134.253
L1329.99 133.737
L1347.13 133.429
L1365.25 133.327
L1378.72 133.387
L1378.72 133.387" style="fill:none;opacity:0.0686335376124;stroke:#1400eb;stroke-width:7;"/>
   </g>
   <g id="line2d_21">
    <path clip-path="url(#p94795a15ac)" d="
M-1 433.304
L32.5646 440.923
L94.4357 454.991
L119.537 460.443
L140.827 464.842
L159.805 468.539
L177.22 471.708
L193.572 474.456
L208.865 476.804
L223.349 478.806
L237.27 480.51
L250.631 481.925
L263.673 483.083
L276.163 483.97
L288.338 484.615
L300.201 485.021
L311.755 485.196
L323 485.148
L334.169 484.875
L345.033 484.387
L355.596 483.694
L366.084 482.784
L376.497 481.655
L386.614 480.335
L396.657 478.802
L406.625 477.055
L416.519 475.092
L426.339 472.914
L436.084 470.521
L445.755 467.913
L455.352 465.092
L464.876 462.059
L474.328 458.817
L483.708 455.368
L493.219 451.634
L502.657 447.69
L512.223 443.45
L521.717 439.001
L531.336 434.249
L541.077 429.188
L550.939 423.811
L560.921 418.115
L571.021 412.096
L581.427 405.634
L592.135 398.717
L603.143 391.336
L614.448 383.487
L626.233 375.033
L638.68 365.831
L652.147 355.593
L666.99 344.021
L684.107 330.381
L706.546 312.193
L754.453 273.281
L771.771 259.557
L786.639 248.053
L800.132 237.892
L812.606 228.771
L824.422 220.404
L835.758 212.645
L846.799 205.359
L857.352 198.657
L867.791 192.291
L877.925 186.37
L887.941 180.775
L897.839 175.5
L907.616 170.543
L917.271 165.896
L926.801 161.553
L936.405 157.422
L945.881 153.586
L955.43 149.961
L964.848 146.622
L974.338 143.491
L983.9 140.57
L993.537 137.862
L1003.25 135.368
L1013.03 133.089
L1022.89 131.025
L1032.82 129.177
L1042.83 127.543
L1052.91 126.124
L1063.07 124.917
L1073.52 123.902
L1084.05 123.104
L1094.65 122.522
L1105.55 122.146
L1116.76 121.986
L1128.04 122.046
L1139.64 122.33
L1151.54 122.844
L1163.75 123.595
L1176.27 124.587
L1189.35 125.848
L1202.75 127.363
L1216.7 129.165
L1231.22 131.262
L1246.54 133.701
L1262.68 136.494
L1280.12 139.742
L1298.88 143.464
L1319.94 147.875
L1344.57 153.269
L1377.24 160.672
L1378.72 161.012
L1378.72 161.012" style="fill:none;opacity:0.198612458392;stroke:#c80037;stroke-width:7;"/>
   </g>
   <g id="line2d_22">
    <path clip-path="url(#p94795a15ac)" d="
M-1 428.733
L21.6636 427.353
L46.5023 426.067
L74.5796 424.84
L109.303 423.557
L229.43 419.321
L256.789 418.012
L281.134 416.627
L303.376 415.142
L324.419 413.516
L344.269 411.76
L363.375 409.848
L381.74 407.788
L399.588 405.563
L416.922 403.181
L433.963 400.615
L450.712 397.87
L467.17 394.949
L483.555 391.815
L499.865 388.466
L516.101 384.904
L532.264 381.128
L548.353 377.141
L564.581 372.89
L580.946 368.372
L597.448 363.584
L614.294 358.463
L631.483 353.002
L649.012 347.2
L667.294 340.911
L686.323 334.128
L706.506 326.693
L728.246 318.444
L752.553 308.976
L781.645 297.395
L829.035 278.246
L872.016 260.971
L899.532 250.15
L922.871 241.206
L944.049 233.325
L963.669 226.257
L982.34 219.765
L1000.26 213.765
L1017.64 208.18
L1034.67 202.938
L1051.36 198.033
L1067.71 193.459
L1083.92 189.152
L1100.2 185.056
L1116.34 181.225
L1132.56 177.608
L1148.63 174.247
L1165 171.055
L1181.44 168.076
L1198.17 165.274
L1214.97 162.683
L1232.06 160.272
L1249.67 158.013
L1267.79 155.914
L1286.43 153.982
L1305.81 152.199
L1325.93 150.571
L1347.25 149.071
L1370.22 147.682
L1378.72 147.22
L1378.72 147.22" style="fill:none;opacity:0.225690513943;stroke:#1e00e1;stroke-width:9;"/>
   </g>
   <g id="line2d_23">
    <path clip-path="url(#p94795a15ac)" d="
M-1 436.287
L25.0193 432.402
L52.8509 428.472
L82.9491 424.45
L116.639 420.178
L157.011 415.292
L223.946 407.458
L282.235 400.544
L320.138 395.826
L352.457 391.581
L381.626 387.528
L408.747 383.537
L434.482 379.528
L459.271 375.441
L483.334 371.249
L506.674 366.958
L529.725 362.497
L552.487 357.866
L575.176 353.024
L598.006 347.925
L620.976 342.565
L644.298 336.894
L668.181 330.854
L692.626 324.443
L718.261 317.486
L745.294 309.918
L774.766 301.431
L808.135 291.583
L849.978 278.987
L965.264 244.152
L998.45 234.439
L1027.74 226.095
L1054.6 218.673
L1080.05 211.865
L1104.53 205.549
L1128.24 199.66
L1151.38 194.138
L1174.38 188.878
L1197.25 183.879
L1219.97 179.138
L1242.77 174.607
L1265.85 170.245
L1289.44 166.015
L1313.54 161.922
L1338.36 157.932
L1364.35 153.983
L1378.72 151.891
L1378.72 151.891" style="fill:none;opacity:0.202676588256;stroke:#ee0011;stroke-width:3;"/>
   </g>
   <g id="line2d_24">
    <path clip-path="url(#p94795a15ac)" d="
M-1 365.133
L13.0482 368.572
L27.7 372.388
L43.4512 376.725
L60.3093 381.603
L78.5356 387.114
L98.6502 393.432
L122.211 401.074
L152.861 411.269
L224.844 435.297
L248.379 442.865
L268.464 449.097
L286.657 454.513
L303.226 459.218
L318.688 463.384
L333.305 467.098
L347.331 470.434
L360.769 473.401
L373.625 476.012
L385.903 478.282
L397.853 480.268
L409.476 481.973
L420.774 483.403
L431.75 484.568
L442.407 485.474
L452.749 486.133
L462.778 486.553
L472.729 486.75
L482.373 486.721
L491.94 486.47
L501.205 486.01
L510.395 485.334
L519.51 484.44
L528.549 483.327
L537.294 482.028
L545.966 480.519
L554.564 478.799
L563.09 476.867
L571.543 474.725
L579.923 472.372
L588.231 469.81
L596.466 467.039
L604.631 464.062
L612.925 460.799
L621.146 457.322
L629.295 453.636
L637.568 449.645
L645.767 445.442
L653.894 441.029
L662.142 436.299
L670.506 431.243
L678.796 425.973
L687.201 420.37
L695.718 414.427
L704.345 408.138
L713.262 401.357
L722.283 394.215
L731.587 386.56
L741.169 378.381
L751.027 369.671
L761.333 360.262
L772.084 350.146
L783.621 338.981
L796.281 326.411
L810.569 311.903
L828.343 293.52
L883.469 236.276
L897.622 222.041
L910.15 209.753
L921.555 198.873
L932.349 188.881
L942.525 179.761
L952.252 171.336
L961.702 163.44
L970.872 156.062
L979.94 149.053
L988.72 142.543
L997.393 136.387
L1005.96 130.579
L1014.41 125.114
L1022.75 119.983
L1031.16 115.069
L1039.46 110.483
L1047.63 106.212
L1055.88 102.154
L1064.01 98.401
L1072.21 94.8564
L1080.48 91.5237
L1088.82 88.4053
L1097.04 85.5715
L1105.32 82.9455
L1113.68 80.5286
L1122.11 78.3218
L1130.61 76.3258
L1139.19 74.5409
L1147.84 72.9672
L1156.56 71.6043
L1165.36 70.4515
L1174.45 69.487
L1183.61 68.7408
L1192.85 68.211
L1202.4 67.8905
L1212.02 67.7921
L1221.71 67.9128
L1231.72 68.2596
L1242.03 68.8439
L1252.43 69.6555
L1263.14 70.7149
L1274.17 72.0313
L1285.52 73.6127
L1297.19 75.4659
L1309.19 77.5965
L1321.76 80.0592
L1334.67 82.8151
L1348.16 85.9241
L1362.23 89.3972
L1377.15 93.3101
L1378.72 93.7357
L1378.72 93.7357" style="fill:none;opacity:0.0508533320704;stroke:#770088;stroke-width:7;"/>
   </g>
   <g id="line2d_25">
    <path clip-path="url(#p94795a15ac)" d="
M-1 446.174
L53.9935 442.403
L109.652 438.515
L143.24 435.945
L171.605 433.554
L196.992 431.195
L220.523 428.789
L242.65 426.306
L263.818 423.71
L284.25 420.982
L304.169 418.097
L323.575 415.061
L342.471 411.88
L361.078 408.523
L379.395 404.996
L397.638 401.257
L415.809 397.307
L433.907 393.146
L452.145 388.726
L470.522 384.043
L489.037 379.095
L507.901 373.825
L527.319 368.166
L547.29 362.112
L568.02 355.593
L589.92 348.469
L613.192 340.662
L638.862 331.813
L668.769 321.259
L709.863 306.5
L777.534 282.192
L807.871 271.553
L833.565 262.774
L856.865 255.045
L878.586 248.072
L899.346 241.64
L919.14 235.738
L938.381 230.23
L957.276 225.051
L975.823 220.197
L994.233 215.608
L1012.5 211.284
L1030.64 207.22
L1048.84 203.368
L1067.12 199.726
L1085.47 196.295
L1104.11 193.036
L1123.04 189.95
L1142.48 187.008
L1162.43 184.217
L1182.89 181.579
L1204.09 179.07
L1226.47 176.647
L1250.03 174.322
L1275.44 172.039
L1303.6 169.735
L1336.54 167.27
L1378.72 164.335
L1378.72 164.335" style="fill:none;opacity:0.0507284409965;stroke:#fa0005;stroke-width:8;"/>
   </g>
  </g>
 </g>
 <defs>
  <clipPath id="p94795a15ac">
   <rect height="576.0" width="1395.0" x="-8.64" y="-8.64"/>
  </clipPath>
 </defs>
</svg>
